<svg xmlns="http://www.w3.org/2000/svg" viewBox="0 0 100 100" aria-hidden="true">
  <defs>
    <linearGradient id="mb" x1="0%" y1="0%" x2="100%" y2="100%">
      <stop offset="0%" stop-color="#a855f7"/>
      <stop offset="100%" stop-color="#6366f1"/>
    </linearGradient>
  </defs>
  <ellipse cx="50" cy="58" rx="38" ry="32" fill="url(#mb)"/>
  <path d="M26 30 L18 10 L34 24 Z" fill="#7c3aed"/>
  <path d="M74 30 L82 10 L66 24 Z" fill="#7c3aed"/>
  <ellipse cx="38" cy="48" rx="11" ry="13" fill="#fff"/>
  <ellipse cx="62" cy="48" rx="11" ry="13" fill="#fff"/>
  <circle cx="40" cy="50" r="5.5" fill="#1e1b2e"/>
  <circle cx="64" cy="50" r="5.5" fill="#1e1b2e"/>
  <circle cx="38" cy="47" r="2" fill="#fff" opacity="0.9"/>
  <circle cx="62" cy="47" r="2" fill="#fff" opacity="0.9"/>
  <path d="M30 68 Q50 88 70 68" fill="none" stroke="#1e1b2e" stroke-width="3.5" stroke-linecap="round"/>
  <path d="M36 71v8M44 73v8M52 74v8M60 73v8M64 71v8" stroke="#fae8ff" stroke-width="2.2" stroke-linecap="round"/>
</svg>
